<svg xmlns="http://www.w3.org/2000/svg" viewBox="0 0 1200 620" role="img" aria-labelledby="title desc">
  <title id="title">Android phone security dashboard</title>
  <desc id="desc">A secure Android phone with scan rings and privacy protection panels.</desc>
  <defs>
    <linearGradient id="g" x1="0" y1="0" x2="1" y2="1"><stop stop-color="#34d399"/><stop offset=".55" stop-color="#22d3ee"/><stop offset="1" stop-color="#818cf8"/></linearGradient>
    <filter id="glow"><feGaussianBlur stdDeviation="7" result="b"/><feMerge><feMergeNode in="b"/><feMergeNode in="SourceGraphic"/></feMerge></filter>
  </defs>
  <rect width="1200" height="620" fill="#020617"/>
  <circle cx="820" cy="292" r="240" fill="#22d3ee" opacity=".08"/>
  <g stroke="#22d3ee" stroke-opacity=".14"><path d="M0 112h1200M0 224h1200M0 336h1200M0 448h1200M0 560h1200M140 0v620M280 0v620M420 0v620M560 0v620M700 0v620M840 0v620M980 0v620M1120 0v620"/></g>
  <g filter="url(#glow)">
    <rect x="430" y="70" width="340" height="500" rx="52" fill="#0f172a" stroke="url(#g)" stroke-width="8"/>
    <rect x="475" y="120" width="250" height="390" rx="28" fill="#020617"/>
    <circle cx="600" cy="302" r="110" fill="#052e2b" stroke="#34d399" stroke-width="8"/>
    <path d="M548 300l35 36 78-92" fill="none" stroke="#34d399" stroke-width="18" stroke-linecap="round" stroke-linejoin="round"/>
    <path d="M520 154h160M520 452h160" stroke="#22d3ee" stroke-width="10" stroke-linecap="round"/>
  </g>
  <text x="70" y="116" font-family="Inter, Arial" font-size="34" font-weight="800" fill="#e5eefb">Android Protection</text>
  <text x="70" y="158" font-family="Inter, Arial" font-size="20" fill="#a7f3d0">Permissions • APK safety • Link scanning • Privacy settings</text>
</svg>
